<svg width="246" height="54" viewBox="0 0 246 54" fill="none" xmlns="http://www.w3.org/2000/svg">
<g clip-path="url(#clip0_190_1849)">
<path d="M19.0939 53.1063L0 0.893677H10.7922L25.3314 42.8068L39.938 0.893677H50.6405L31.5465 53.1063H19.1164H19.0939Z" fill="#FF0032"/>
<path d="M56.9229 53.1063V0.893677H67.042V53.1063H56.9229Z" fill="#FF0032"/>
<path d="M122.551 53.1063V0.893677H132.67V53.1063H122.551Z" fill="#FF0032"/>
<path d="M167.044 54C161.996 54 157.553 52.8606 153.672 50.5594C149.79 48.2582 146.761 45.108 144.54 41.0418C142.318 36.9979 141.197 32.3062 141.197 26.9888C141.197 21.6715 142.318 16.9797 144.54 12.9359C146.761 8.89202 149.812 5.71949 153.672 3.41829C157.553 1.13943 161.996 -0.0223389 167.044 -0.0223389C172.092 -0.0223389 176.714 1.11709 180.641 3.41829C184.567 5.69715 187.596 8.86968 189.773 12.9359C191.949 16.9797 193.026 21.6715 193.026 26.9888C193.026 32.3062 191.949 36.9979 189.773 41.0418C187.596 45.0856 184.545 48.2582 180.641 50.5594C176.714 52.8382 172.182 54 167.044 54ZM167.044 44.9739C170.297 44.9739 173.08 44.2367 175.391 42.7621C177.724 41.2875 179.519 39.2098 180.776 36.5288C182.054 33.8477 182.683 30.6529 182.683 26.9888C182.683 23.3248 182.054 20.0629 180.776 17.4042C179.497 14.7456 177.702 12.6901 175.391 11.2602C173.057 9.80803 170.275 9.09309 167.044 9.09309C163.813 9.09309 161.233 9.80803 158.922 11.2602C156.588 12.7125 154.793 14.7456 153.492 17.4042C152.191 20.0629 151.54 23.2578 151.54 26.9888C151.54 30.7199 152.191 33.8477 153.492 36.5288C154.793 39.2098 156.611 41.2875 158.922 42.7621C161.255 44.2367 163.948 44.9739 167.044 44.9739Z" fill="#FF0032"/>
<path d="M201.664 53.1063V0.893677H211.783L235.903 36.9309V0.893677H246.022V53.1063H235.903L211.783 17.1585V53.1063H201.664Z" fill="#FF0032"/>
<path d="M112.013 16.0495H100.635C100.635 16.0495 100.81 13.8004 99.0858 12.0515C95.1515 8.06074 86.6899 8.82204 86.6899 15.1264L86.6899 15.1665C86.6895 17.4545 86.6978 19.809 98.3289 23.556C101.548 24.5931 104.03 25.8985 105.943 27.0009C112.188 30.5988 112.503 36.417 112.503 39.2565C112.503 42.2819 111.303 48.925 103.737 51.9504C96.1707 54.9758 85.4473 53.552 80.7409 48.925C76.9758 45.2233 76.4316 40.0663 76.6302 37.9505H88.009C88.009 37.9505 87.8338 40.1996 89.5579 41.9485C93.4922 45.9393 101.954 45.178 101.954 38.8736L101.954 38.8335C101.954 36.5455 101.955 34.192 90.3235 30.445C87.1042 29.4078 84.6225 28.1024 82.7091 27C76.4643 23.4021 76.1494 17.584 76.1494 14.7445C76.1494 11.7191 77.3409 5.07505 84.9069 2.04965C92.4729 -0.975754 103.196 0.44796 107.903 5.07505C111.668 8.77672 112.212 13.9337 112.013 16.0495Z" fill="#FF0032"/>
<path d="M25.3202 13.3124H20.9312L24.3233 24.515H26.6244L30.0718 13.3124H25.3202Z" fill="#FF0032"/>
</g>
<defs>
<clipPath id="clip0_190_1849">
<rect width="246" height="54" fill="white"/>
</clipPath>
</defs>
</svg>
