<svg width="1075" height="237" viewBox="0 0 1075 237" fill="none" xmlns="http://www.w3.org/2000/svg">
<g clip-path="url(#clip0_190_1765)">
<path d="M83.439 233.078L0 3.92224H47.1612L110.696 187.874L174.526 3.92224H221.295L137.856 233.078H83.537H83.439Z" fill="white"/>
<path d="M248.748 233.078V3.92224H292.968V233.078H248.748Z" fill="white"/>
<path d="M535.539 233.078V3.92224H579.759V233.078H535.539Z" fill="white"/>
<path d="M729.969 237C707.908 237 688.494 231.999 671.532 221.899C654.57 211.8 641.333 197.974 631.626 180.128C621.919 162.38 617.017 141.788 617.017 118.451C617.017 95.1138 621.919 74.5222 631.626 56.7741C641.333 39.0261 654.668 25.1022 671.532 15.0025C688.494 5.00086 707.908 -0.0980225 729.969 -0.0980225C752.029 -0.0980225 772.227 4.9028 789.386 15.0025C806.544 25.0042 819.781 38.928 829.291 56.7741C838.802 74.5222 843.508 95.1138 843.508 118.451C843.508 141.788 838.802 162.38 829.291 180.128C819.781 197.876 806.446 211.8 789.386 221.899C772.227 231.901 752.422 237 729.969 237ZM729.969 197.386C744.186 197.386 756.343 194.15 766.442 187.678C776.639 181.206 784.483 172.087 789.974 160.321C795.563 148.554 798.308 134.532 798.308 118.451C798.308 102.37 795.563 88.0538 789.974 76.3852C784.385 64.7166 776.541 55.6955 766.442 49.42C756.245 43.0464 744.087 39.9086 729.969 39.9086C715.85 39.9086 704.574 43.0464 694.475 49.42C684.278 55.7936 676.434 64.7166 670.748 76.3852C665.061 88.0538 662.217 102.076 662.217 118.451C662.217 134.826 665.061 148.554 670.748 160.321C676.434 172.087 684.376 181.206 694.475 187.678C704.672 194.15 716.438 197.386 729.969 197.386Z" fill="white"/>
<path d="M881.257 233.078V3.92224H925.477L1030.88 162.086V3.92224H1075.1V233.078H1030.88L925.477 75.3066V233.078H881.257Z" fill="white"/>
<path d="M489.489 70.4397H439.765C439.765 70.4397 440.531 60.5683 432.997 52.8928C415.804 35.3777 378.827 38.719 378.827 66.3881L378.827 66.5642C378.826 76.6059 378.862 86.9395 429.689 103.385C443.757 107.937 454.602 113.666 462.964 118.504C490.253 134.295 491.629 159.83 491.629 172.292C491.629 185.57 486.384 214.726 453.321 228.004C420.258 241.283 373.397 235.034 352.831 214.726C336.378 198.48 334 175.846 334.868 166.56H384.592C384.592 166.56 383.826 176.432 391.36 184.107C408.553 201.622 445.53 198.281 445.53 170.612L445.53 170.436C445.531 160.394 445.533 150.065 394.706 133.62C380.638 129.068 369.793 123.338 361.432 118.5C334.143 102.709 332.767 77.1742 332.767 64.7119C332.767 51.4337 337.973 22.2738 371.036 8.99569C404.099 -4.28246 450.96 1.96606 471.526 22.2738C487.979 38.5201 490.357 61.1537 489.489 70.4397Z" fill="white"/>
<path d="M110.647 58.4263H91.4675L106.291 107.593H116.347L131.411 58.4263H110.647Z" fill="white"/>
</g>
<defs>
<clipPath id="clip0_190_1765">
<rect width="1075" height="237" fill="white"/>
</clipPath>
</defs>
</svg>
